# xmcd CD database file
# Copyright (C) 1993-1998 Ti Kan
#
# Track frame offsets:
# 150
# 13983
# 28976
# 45513
# 58093
# 71272
# 84575
# 99266
# 129072
# 145278
# 160964
# 172622
# 191082
# 204427
# 220302
#
# Disc length: 3049 seconds
#
# Revision: 0
# Processed by: cddbd v1.4b41PL1 Copyright (c) Steve Scherf et al.
# Submitted via: inCDius 1.1
#
DISCID=ca0be70f
DTITLE=Backdoor Blues Band - One More Shot
DYEAR=1900
DGENRE=
TTITLE0=Buddy Buddy Friends
TTITLE1=Another Man´s Wife
TTITLE2=Raining In My Heart
TTITLE3=Too Tired
TTITLE4=Smokestack Lightning
TTITLE5=Lucy Mae
TTITLE6=Cutting Out
TTITLE7=Telephone Blues
TTITLE8=One More Shot
TTITLE9=Things That I Used To Do
TTITLE10=Possession over Judgement Day
TTITLE11=Soon Forgotten
TTITLE12=Hey Bartender
TTITLE13=Held Up In Town
TTITLE14=
EXTD=
EXTT0=
EXTT1=
EXTT2=
EXTT3=
EXTT4=
EXTT5=
EXTT6=
EXTT7=
EXTT8=
EXTT9=
EXTT10=
EXTT11=
EXTT12=
EXTT13=
EXTT14=
PLAYORDER=
